<svg width="311" height="180" viewBox="0 0 311 180" fill="none" xmlns="http://www.w3.org/2000/svg">
<rect y="112" width="62" height="45.3333" fill="#6D423B"/>
<rect y="152.667" width="31.3333" height="13.3333" fill="#6D423B"/>
<rect y="166" width="17.3333" height="13.3333" fill="#6D423B"/>
<rect x="54" y="130.667" width="8" height="8" fill="#262020"/>
<rect x="31.3359" y="130.667" width="8" height="8" fill="#262020"/>
<rect width="30.828" height="13.1183" transform="matrix(-1 0 0 1 310.613 153.011)" fill="#DBA97A"/>
<rect width="17.0538" height="13.1183" transform="matrix(-1 0 0 1 310.613 166.129)" fill="#DBA97A"/>
<rect width="61" height="44.6021" transform="matrix(-1 0 0 1 310.613 113)" fill="#DBA97A"/>
<rect width="7.87097" height="7.87097" transform="matrix(-1 0 0 1 257.484 131.366)" fill="#262020"/>
<rect width="7.87097" height="7.87097" transform="matrix(-1 0 0 1 279.785 131.366)" fill="#262020"/>
<path fill-rule="evenodd" clip-rule="evenodd" d="M12 1H292V72H252V98L224 72H84L56 98V72H12V1Z" fill="#262020"/>
<path d="M292 1H292.5V0.5H292V1ZM12 1V0.5H11.5V1H12ZM292 72V72.5H292.5V72H292ZM252 72V71.5H251.5V72H252ZM252 98L251.66 98.3664L252.5 99.1466V98H252ZM224 72L224.34 71.6336L224.196 71.5H224V72ZM84 72V71.5H83.8037L83.6598 71.6336L84 72ZM56 98H55.5V99.1466L56.3402 98.3664L56 98ZM56 72H56.5V71.5H56V72ZM12 72H11.5V72.5H12V72ZM292 0.5H12V1.5H292V0.5ZM292.5 72V1H291.5V72H292.5ZM252 72.5H292V71.5H252V72.5ZM252.5 98V72H251.5V98H252.5ZM223.66 72.3664L251.66 98.3664L252.34 97.6336L224.34 71.6336L223.66 72.3664ZM84 72.5H224V71.5H84V72.5ZM56.3402 98.3664L84.3402 72.3664L83.6598 71.6336L55.6598 97.6336L56.3402 98.3664ZM55.5 72V98H56.5V72H55.5ZM12 72.5H56V71.5H12V72.5ZM11.5 1V72H12.5V1H11.5Z" fill="#BA4AEF"/>
<path d="M48.1133 33H50.1133V31H52.1133V29H60.1133V31H62.1133V41H60.1133V43H58.1133V45H52.1133V51H48.1133V33ZM52.1133 41H56.1133V39H58.1133V33H54.1133V35H52.1133V41Z" fill="#FFE131"/>
<path d="M64.1133 43V25H68.1133V41H70.1133V45H66.1133V43H64.1133Z" fill="#FFE131"/>
<path d="M72.1133 43V37H76.1133V35H72.1133V31H74.1133V29H82.1133V31H84.1133V41H86.1133V45H82.1133V43H80.1133V45H74.1133V43H72.1133ZM76.1133 41H80.1133V39H76.1133V41ZM76.1133 35H80.1133V33H76.1133V35Z" fill="#FFE131"/>
<path d="M88.1133 47H92.1133V49H94.1133V47H96.1133V45H90.1133V43H88.1133V29H92.1133V41H96.1133V29H100.113V49H98.1133V51H96.1133V53H90.1133V51H88.1133V47Z" fill="#FFE131"/>
<path d="M112.113 45V31H116.113V45H112.113ZM112.113 29V25H116.113V29H112.113Z" fill="#FFE131"/>
<path d="M118.113 35V31H120.113V25H124.113V31H128.113V35H124.113V41H126.113V39H130.113V41H128.113V43H126.113V45H122.113V43H120.113V35H118.113Z" fill="#FFE131"/>
<path d="M142.113 37V33H144.113V27H146.113V25H152.113V27H154.113V31H150.113V29H148.113V33H150.113V37H148.113V45H144.113V37H142.113Z" fill="#FFE131"/>
<path d="M156.113 43V31H158.113V29H166.113V31H168.113V43H166.113V45H158.113V43H156.113ZM160.113 41H164.113V33H160.113V41Z" fill="#FFE131"/>
<path d="M170.113 45V33H172.113V31H174.113V29H180.113V31H182.113V37H178.113V33H176.113V35H174.113V45H170.113Z" fill="#FFE131"/>
<path d="M184.113 39V29H188.113V37H190.113V41H192.113V31H196.113V41H198.113V37H200.113V29H204.113V39H202.113V43H200.113V45H196.113V43H192.113V45H188.113V43H186.113V39H184.113Z" fill="#FFE131"/>
<path d="M206.113 43V37H210.113V35H206.113V31H208.113V29H216.113V31H218.113V41H220.113V45H216.113V43H214.113V45H208.113V43H206.113ZM210.113 41H214.113V39H210.113V41ZM210.113 35H214.113V33H210.113V35Z" fill="#FFE131"/>
<path d="M222.113 45V33H224.113V31H226.113V29H232.113V31H234.113V37H230.113V33H228.113V35H226.113V45H222.113Z" fill="#FFE131"/>
<path d="M236.113 43V33H238.113V31H240.113V29H246.113V25H250.113V43H248.113V45H238.113V43H236.113ZM240.113 41H246.113V33H242.113V35H240.113V41Z" fill="#FFE131"/>
<path d="M254.113 45V41H258.113V45H254.113ZM254.113 37V25H258.113V39H256.113V37H254.113Z" fill="#FFE131"/>
</svg>
