<?xml version="1.0" encoding="utf-8"?>
<!-- Generator: Adobe Illustrator 26.3.1, SVG Export Plug-In . SVG Version: 6.00 Build 0)  -->
<svg version="1.1" id="Layer_1" xmlns="http://www.w3.org/2000/svg" xmlns:xlink="http://www.w3.org/1999/xlink" x="0px" y="0px"
	 viewBox="0 0 1950 50" style="enable-background:new 0 0 1950 50;" xml:space="preserve">
<style type="text/css">
	.st0{fill:none;stroke:#7CC45D;stroke-width:12;stroke-miterlimit:80;}
</style>
<polyline class="st0" points="1950,7 1920,7 1920,27 1890,27 1890,12 1860,12 1860,27 1830,27 1830,42 1800,42 1800,17 1770,17 
	1770,37 1740,37 1740,7 1710,7 1710,27 1680,27 1680,17 1650,17 1650,12 1620,12 1620,27 1590,27 1590,42 1560,42 1560,17 1530,17 
	1530,7 1500,7 1500,37 1470,37 1470,17 1440,17 1440,7 1410,7 1410,37 1380,37 1380,27 1350,27 1350,17 1320,17 1320,27 1290,27 
	1290,22.1 1260,22.1 1260,7 1230,7 1230,17 1200,17 1200,37 1170,37 1170,26.3 1140,26.3 1140,42 1110,42 1110,7 1080,7 1080,26.3 
	1050,26.3 1050,12 1020,12 1020,32 990,32 990,7 960,7 960,27 930,27 930,12 900,12 900,27 870,27 870,42 840,42 840,17 810,17 
	810,37 780,37 780,7 750,7 750,27 720,27 720,17 690,17 690,12 660,12 660,27 630,27 630,42 600,42 600,17 570,17 570,7 540,7 
	540,37 510,37 510,17 480,17 480,7 450,7 450,37 420,37 420,27 390,27 390,17 360,17 360,27 330,27 330,22.1 300,22.1 300,7 270,7 
	270,17 240,17 240,37 210,37 210,26.3 180,26.3 180,42 150,42 150,7 120,7 120,26.3 90,26.3 90,12 60,12 60,26.3 30,26.3 30,37 
	0,37 "/>
</svg>
