<?xml version="1.0" encoding="utf-8"?>
<!-- Generator: Adobe Illustrator 26.3.1, SVG Export Plug-In . SVG Version: 6.00 Build 0)  -->
<svg version="1.1" id="Layer_1" xmlns="http://www.w3.org/2000/svg" xmlns:xlink="http://www.w3.org/1999/xlink" x="0px" y="0px"
	 viewBox="0 0 1950 135" style="enable-background:new 0 0 1950 135;" xml:space="preserve">
<style type="text/css">
	.st0{fill:none;stroke:#7CC45D;stroke-width:12;stroke-miterlimit:80;}
</style>
<polyline class="st0" points="0,129 30,129 30,54 60,54 60,114 90,114 90,71.1 120,71.1 120,129 150,129 150,24 180,24 180,71.1 
	210,71.1 210,39 240,39 240,99 270,99 270,129 300,129 300,84 330,84 330,69 360,69 360,99 390,99 390,69 420,69 420,39 450,39 
	450,129 480,129 480,99 510,99 510,39 540,39 540,129 570,129 570,99 600,99 600,24 630,24 630,69 660,69 660,114 690,114 690,99 
	720,99 720,69 750,69 750,129 780,129 780,39 810,39 810,99 840,99 840,24 870,24 870,69 900,69 900,114 930,114 930,69 960,69 
	960,129 990,129 990,54 1020,54 1020,114 1050,114 1050,71.1 1080,71.1 1080,129 1110,129 1110,24 1140,24 1140,71.1 1170,71.1 
	1170,39 1200,39 1200,99 1230,99 1230,129 1260,129 1260,84 1290,84 1290,69 1320,69 1320,99 1350,99 1350,69 1380,69 1380,39 
	1410,39 1410,129 1440,129 1440,99 1470,99 1470,39 1500,39 1500,129 1530,129 1530,99 1560,99 1560,24 1590,24 1590,69 1620,69 
	1620,114 1650,114 1650,99 1680,99 1680,69 1710,69 1710,129 1740,129 1740,39 1770,39 1770,99 1800,99 1800,24 1830,24 1830,69 
	1860,69 1860,114 1890,114 1890,69 1920,69 1920,129 1950,129 "/>
</svg>
