<svg xmlns="http://www.w3.org/2000/svg" viewBox="0 0 31.07 17.72"><defs><style>.cls-1{fill:none;stroke:#ff8682;stroke-linecap:round;stroke-linejoin:round;stroke-width:5.5px;}</style></defs><g id="Layer_2" data-name="Layer 2"><g id="Layer_1-2" data-name="Layer 1"><path id="STROKE_c7f8fbb9-37f4-401d-b104-0986ef8d85d7" data-name="STROKE c7f8fbb9-37f4-401d-b104-0986ef8d85d7" class="cls-1" d="M3,11.79a31.32,31.32,0,0,1,.79-3.33,17.11,17.11,0,0,1,1.65-3.8,28.54,28.54,0,0,1,7.31-1.37c3.7-.37,5.86-.56,6.5-.54l1.91.07c.63,0,1.51.1,2.61.22s1.76.21,1.95.25a14.68,14.68,0,0,1,1.51.56c.1,0,.3.45.6,1.27a7.44,7.44,0,0,1,.49,2.12,7.77,7.77,0,0,1-.1,1.69,25.62,25.62,0,0,1-2.09,4.49L25,13.71l-.71.17-1.55.38-1.58.31c-.06,0-.63.1-1.71.22a26.64,26.64,0,0,1-2.92.18c-.86,0-1.6,0-2.2-.07l-1.55-.1c-.43,0-1.32-.06-2.68-.1L8,14.63l-5.22-.19"/><path id="STROKE_e30a2393-28d0-40ab-a99b-4efb99fbcdb6" data-name="STROKE e30a2393-28d0-40ab-a99b-4efb99fbcdb6" class="cls-1" d="M13.89,11q0-.35.91-5.49"/><path id="STROKE_8ffb50e9-b15f-4d11-b71d-8926c0989fe2" data-name="STROKE 8ffb50e9-b15f-4d11-b71d-8926c0989fe2" class="cls-1" d="M17.38,10.57l.38-1.5q.09-.5,1.35-4.7"/><path id="STROKE_af2ca7ce-cd8e-4320-b4b4-5e47ea5952cb" data-name="STROKE af2ca7ce-cd8e-4320-b4b4-5e47ea5952cb" class="cls-1" d="M21.88,10.08q.07-.22,2-5"/><path id="STROKE_fe9ae453-bf23-4f0b-9a4f-55913eda90d7" data-name="STROKE fe9ae453-bf23-4f0b-9a4f-55913eda90d7" class="cls-1" d="M25.72,9.92c.42-1.1.94-2.42,1.56-3.95"/></g></g></svg>