<svg width="64" height="568" viewBox="0 0 64 568" fill="none"
  xmlns="http://www.w3.org/2000/svg">
  <g clip-path="url(#clip0)">
    <path fill-rule="evenodd" clip-rule="evenodd" d="M-1.37782 565.257C-1.25575 564.579 -0.665172 564.104 0 564.105V553.822C-0.125419 553.788 -0.251523 553.754 -0.378313 553.718C-1.12275 553.509 -1.55686 552.736 -1.34792 551.992C-1.13899 551.247 -0.366127 550.813 0.378307 551.022C4.64311 552.219 7.63162 552.113 9.71831 551.263C11.7581 550.433 13.1607 548.8 14.0789 546.413C15.0102 543.992 15.4076 540.874 15.4291 537.28C15.4493 533.898 15.1371 530.18 14.6792 526.367C14.2926 526.133 13.9161 525.912 13.5332 525.688L13.5321 525.688L13.5306 525.687L13.5285 525.685C13.118 525.445 12.7001 525.201 12.2547 524.93C11.2556 524.322 10.2433 523.652 9.33018 522.832C7.44211 521.135 6.07118 518.874 5.76137 515.361L5.75949 515.338L5.75773 515.309C4.53752 491.094 5.36496 466.637 6.19089 442.224L6.19095 442.222C6.25898 440.211 6.32699 438.201 6.39386 436.191C7.27333 409.752 7.9536 383.383 5.86137 357.302C5.85795 357.259 5.85649 357.216 5.85699 357.173C6.25394 322.996 6.41511 288.611 6.5765 254.179C6.82526 201.106 7.07455 147.922 8.1887 95.2144L8.18954 95.1872L8.19057 95.1657C8.8343 83.6725 8.93276 72.0605 8.99206 60.3956C8.9966 59.5022 9.00091 58.6085 9.00523 57.7145L9.00525 57.7083L9.00529 57.7021L9.00532 57.6957C9.05711 46.9566 9.1091 36.1774 9.5594 25.4592C8.99598 15.2711 10.4725 8.43891 14.5383 4.46575C18.6354 0.462 24.9253 -0.218829 32.7923 0.694995C32.8044 0.696395 32.8164 0.697951 32.8284 0.699663C35.0224 1.01251 37.6485 0.96434 40.555 0.907818L40.5845 0.907244C43.4307 0.85189 46.5114 0.791976 49.4324 1.1294C52.367 1.46841 55.2645 2.21966 57.6997 3.87463C60.1708 5.55399 62.0573 8.09037 63.0692 11.7839C63.1015 11.9016 63.1182 12.0231 63.1189 12.1452C63.3912 56.5199 62.6944 100.634 61.9969 144.787L61.9969 144.788L61.9969 144.79L61.9165 149.884C61.1935 195.744 60.51 241.661 60.9489 288.003L60.9489 288.027C60.7213 317.186 61.578 345.857 62.4328 374.469L62.4328 374.469C62.5817 379.452 62.7306 384.434 62.8736 389.416C63.8376 422.99 64.538 456.571 63.2087 490.774L63.2084 490.783C62.7035 501.993 61.877 509.57 60.4917 514.659C59.0985 519.777 57.0594 522.665 53.9338 524.056C52.4295 524.726 50.7742 525 49.0181 525.102C47.3177 525.2 45.4301 525.14 43.4094 525.075H43.4086H43.4079L43.2396 525.069C39.3045 524.943 34.6659 524.807 29.0888 525.656C29.0794 526.355 29.0707 527.05 29.062 527.742C28.9953 533.06 28.9317 538.131 28.5935 542.725C28.1873 548.244 27.3776 553.227 25.6119 557.262C23.8243 561.348 21.0414 564.493 16.7452 566.22C12.5075 567.924 6.96184 568.182 -0.248232 566.883C-1.00918 566.746 -1.51491 566.017 -1.37782 565.257Z" fill="#C4C4C4"/>
  </g>
  <defs>
    <clipPath id="clip0">
      <rect width="64" height="568" fill="white"/>
    </clipPath>
  </defs>
</svg>
