<svg width="64" height="568" viewBox="0 0 64 568" fill="none" xmlns="http://www.w3.org/2000/svg">
<g clip-path="url(#clip0)">
<path fill-rule="evenodd" clip-rule="evenodd" d="M12.3588 25.3713C11.7922 15.275 13.3512 9.54074 16.4953 6.46833C19.6148 3.41986 24.7247 2.57888 32.4517 3.47425C34.8838 3.81874 37.7132 3.76366 40.5139 3.70915L40.6095 3.70729C43.5005 3.65107 46.4001 3.59773 49.1111 3.9109C51.8184 4.22366 54.2135 4.89076 56.1259 6.19044C57.9671 7.44178 59.4614 9.34714 60.3201 12.3502C60.4388 31.8817 60.3698 51.3635 60.1958 70.8238C60.0748 70.8025 59.949 70.7969 59.8208 70.8089L59.5797 70.8313C59.4248 70.8456 59.2033 70.8658 58.9367 70.8898C58.4033 70.9377 47.6913 71.0002 46.9748 71.0587C46.2559 71.1175 45.5416 71.1715 44.9999 71.2031C44.7266 71.2191 44.5133 71.2283 44.3707 71.2306L44.3396 71.2309L44.3188 71.2311C43.798 71.1446 43.2502 71.3579 42.9327 71.8225C42.4965 72.4609 42.6604 73.332 43.2988 73.7683C43.5802 73.9606 43.8699 74.0002 43.8939 74.0035L43.8954 74.0037C43.981 74.0177 44.0573 74.0233 44.1056 74.026C44.2071 74.0317 44.3165 74.0318 44.4147 74.0302C44.6177 74.027 44.8782 74.015 45.1631 73.9983C45.738 73.9648 46.4784 73.9086 47.2028 73.8494C47.9295 73.79 58.6495 73.7268 59.1872 73.6785C59.4562 73.6544 59.68 73.6339 59.8366 73.6195L60.0836 73.5965C60.1129 73.5938 60.1418 73.5902 60.1704 73.5857C59.9976 91.8888 59.7354 110.174 59.4526 128.465C58.8353 128.442 58.2965 128.421 57.8103 128.401L57.8071 128.401L57.7998 128.401L57.7969 128.401C56.1581 128.336 45.1169 128.294 43.6849 128.294C42.9117 128.294 42.2849 128.921 42.2849 129.694C42.2849 130.467 42.9117 131.094 43.6849 131.094C45.0597 131.094 56.0274 131.133 57.6255 131.196C58.1422 131.217 58.7255 131.24 59.4091 131.266C59.3391 135.762 59.2681 140.259 59.197 144.757L59.1168 149.839C58.8782 164.974 58.6439 180.118 58.4527 195.285C56.8617 195.189 44.447 195.084 43.6647 195.084C42.8915 195.084 42.2647 195.711 42.2647 196.484C42.2647 197.257 42.8915 197.884 43.6647 197.884C44.4159 197.884 56.9192 197.995 58.4179 198.088C58.1892 216.776 58.0297 235.498 58.0123 254.278C56.9783 254.359 45.9536 254.515 45.1599 254.648C44.8305 254.703 44.596 254.745 44.3948 254.781L44.3874 254.782C44.2169 254.812 44.0689 254.838 43.9072 254.865L43.8406 254.876C43.4882 254.85 43.1256 254.956 42.8339 255.201C42.781 255.246 42.6767 255.339 42.5774 255.483C42.486 255.615 42.3049 255.925 42.3288 256.361C42.3562 256.86 42.6298 257.208 42.8721 257.396C43.0811 257.558 43.2836 257.62 43.3714 257.644C43.5535 257.693 43.7066 257.694 43.7501 257.695C43.8172 257.695 43.8759 257.692 43.915 257.689C44.0544 257.678 44.2251 257.651 44.3656 257.628C44.4737 257.61 44.6557 257.578 44.8624 257.541C45.1088 257.498 45.3905 257.448 45.6239 257.409C46.3407 257.289 57.1833 257.162 58.0107 257.088C58.0091 267.379 58.0511 277.687 58.1489 288.017C58.0549 300.072 58.1459 312.044 58.3453 323.959H41.8177C41.0445 323.959 40.4177 324.586 40.4177 325.359C40.4177 326.132 41.0445 326.759 41.8177 326.759H58.3782C58.3835 326.759 58.3888 326.759 58.3941 326.759C58.6844 342.772 59.1599 358.685 59.6343 374.561C59.7832 379.543 59.9319 384.521 60.0748 389.497C60.119 391.038 60.1627 392.579 60.2057 394.12L44.0098 394.2C43.2367 394.21 42.6181 394.845 42.6282 395.618C42.6382 396.391 43.2731 397.01 44.0463 397L60.2829 396.919C60.9239 420.43 61.3706 443.932 61.0193 467.655C59.4457 467.983 47.8359 467.927 46.276 467.486C45.532 467.276 44.7583 467.708 44.5481 468.452C44.3378 469.196 44.7705 469.97 45.5146 470.18C47.3041 470.686 59.1539 470.797 60.9732 470.509C60.8558 477.206 60.6729 483.922 60.411 490.661C59.9066 501.857 59.0867 509.16 57.79 513.924C56.5009 518.659 54.822 520.596 52.7951 521.498C51.7231 521.975 50.4435 522.215 48.8563 522.307C47.2829 522.398 45.5044 522.341 43.417 522.273L43.3296 522.271C39.1108 522.135 33.8608 521.977 27.4667 523.083C26.8032 523.198 26.3154 523.769 26.3056 524.442C26.2893 525.553 26.2754 526.65 26.2618 527.733C26.1949 533.051 26.1324 538.018 25.8011 542.52C25.4017 547.945 24.6192 552.546 23.0467 556.14C21.496 559.685 19.1945 562.217 15.7007 563.622C12.1486 565.05 7.1987 565.379 0.248226 564.127C-0.512722 563.99 -1.24073 564.496 -1.37782 565.257C-1.51491 566.017 -1.00918 566.745 -0.248232 566.883C6.96184 568.181 12.5075 567.924 16.7452 566.22C21.0414 564.493 23.8243 561.348 25.6119 557.262C27.3776 553.227 28.1873 548.244 28.5935 542.725C28.9317 538.13 28.9953 533.06 29.062 527.742C29.0707 527.05 29.0794 526.355 29.0888 525.656C34.6659 524.807 39.3045 524.943 43.2396 525.069L43.4079 525.075C45.4292 525.14 47.3173 525.2 49.0181 525.102C50.7742 525 52.4295 524.726 53.9338 524.056C57.0594 522.665 59.0985 519.777 60.4917 514.659C61.877 509.57 62.7035 501.993 63.2084 490.783L63.2087 490.774C64.538 456.571 63.8376 422.99 62.8736 389.416C62.7306 384.434 62.5817 379.452 62.4328 374.469C61.578 345.857 60.7213 317.186 60.9489 288.027L60.9489 288.003C60.51 241.661 61.1935 195.744 61.9165 149.884L61.9969 144.79C62.6943 100.636 63.3912 56.521 63.1189 12.1452C63.1182 12.0231 63.1015 11.9016 63.0692 11.7839C62.0573 8.09037 60.1708 5.55399 57.6997 3.87463C55.2645 2.21966 52.367 1.46841 49.4324 1.1294C46.5114 0.791976 43.4307 0.85189 40.5845 0.907244L40.555 0.907818C37.6485 0.96434 35.0224 1.01251 32.8284 0.699663C32.8164 0.697951 32.8044 0.696395 32.7923 0.694995C24.9253 -0.218829 18.6354 0.462 14.5383 4.46575C10.4725 8.43891 8.99598 15.2711 9.5594 25.4592C9.1091 36.1774 9.05711 46.9566 9.00532 57.6957L9.00529 57.7021C9.00095 58.6002 8.99662 59.4981 8.99206 60.3956C8.93276 72.0605 8.8343 83.6725 8.19057 95.1657C8.18967 95.1819 8.18904 95.1981 8.1887 95.2144C7.07455 147.922 6.82526 201.106 6.5765 254.179C6.41511 288.611 6.25394 322.996 5.85699 357.173C5.85649 357.216 5.85795 357.259 5.86137 357.302C7.9536 383.383 7.27333 409.752 6.39386 436.191C6.32699 438.201 6.25898 440.211 6.19095 442.222L6.19089 442.224C5.36496 466.637 4.53752 491.094 5.75773 515.309C5.75822 515.319 5.7588 515.328 5.75949 515.338C5.76005 515.346 5.76068 515.354 5.76137 515.361C6.07118 518.874 7.44211 521.135 9.33018 522.832C10.2433 523.652 11.2556 524.322 12.2547 524.93C12.7014 525.201 13.1204 525.447 13.5321 525.688L13.5332 525.688C13.9161 525.912 14.2926 526.133 14.6792 526.367C15.1371 530.18 15.4493 533.898 15.4291 537.28C15.4076 540.874 15.0102 543.992 14.0789 546.413C13.1607 548.8 11.7581 550.433 9.71831 551.263C7.63162 552.113 4.64311 552.219 0.378307 551.022C-0.366127 550.813 -1.13899 551.247 -1.34792 551.992C-1.55686 552.736 -1.12275 553.509 -0.378313 553.718C4.20344 555.004 7.88896 555.031 10.774 553.857C13.7061 552.663 15.5729 550.328 16.6922 547.418C17.7985 544.543 18.2067 541.037 18.229 537.297C18.2515 533.541 17.8843 529.45 17.3767 525.358C17.3251 524.941 17.0891 524.57 16.7339 524.346C16.1338 523.967 15.4826 523.585 14.8658 523.223L14.8604 523.22C14.4536 522.981 14.062 522.752 13.7099 522.537C12.7615 521.96 11.9223 521.396 11.2016 520.749C9.82626 519.513 8.80215 517.907 8.55282 515.141C7.34081 491.058 8.16383 466.725 8.99004 442.297C9.05781 440.293 9.12561 438.289 9.19231 436.284C10.0708 409.874 10.7578 383.379 8.65754 357.142C9.05446 322.941 9.21552 288.563 9.37675 254.149C9.62524 201.109 9.87412 147.985 10.9876 95.2979C11.6345 83.7329 11.7328 72.0635 11.792 60.4098C11.7966 59.5152 11.8009 58.6207 11.8052 57.7264L11.8052 57.7183C11.8572 46.946 11.9091 36.1947 12.3598 25.5087C12.3617 25.4629 12.3614 25.417 12.3588 25.3713Z" fill="#CCCCCC"/>
</g>
<defs>
<clipPath id="clip0">
<rect width="64" height="568" fill="white"/>
</clipPath>
</defs>
</svg>
