<svg xmlns="http://www.w3.org/2000/svg" viewBox="0 0 25.56 25.8">
  <path d="M11.71,25.8H11a12.54,12.54,0,0,1-3-.44,11.4,11.4,0,0,1-2.23-.89A11.66,11.66,0,0,1,4,23.33a10.15,10.15,0,0,1-1.28-1.17A9.4,9.4,0,0,1,1,19.26a11.7,11.7,0,0,1-1-3.54,13.63,13.63,0,0,1,.17-3.35,12.53,12.53,0,0,1,.93-3.29A11.42,11.42,0,0,1,2.78,6.5q.33-.37.72-.75c.27-.45.55-.87.84-1.27a11.93,11.93,0,0,1,2.3-2.3A11.39,11.39,0,0,1,8.9.77,10,10,0,0,1,10.42.24,8.89,8.89,0,0,1,12.33,0l1.08,0A6.71,6.71,0,0,1,16.3.79a3.56,3.56,0,0,1,4.4.87c.91,1.09,1.55,1.9,2,2.47a17,17,0,0,1,1.7,3.4,16.41,16.41,0,0,1,1.16,4.36,11,11,0,0,1-.77,4.94A12.26,12.26,0,0,1,22.28,21a15.49,15.49,0,0,1-3,2.46,14.68,14.68,0,0,1-2.9,1.5,15.25,15.25,0,0,1-2.4.68A12.42,12.42,0,0,1,11.71,25.8Z"/>
</svg>