<svg xmlns="http://www.w3.org/2000/svg" viewBox="0 0 27.7 25.68">
  <path d="M16.39,25.68a9,9,0,0,1-1.79-.16,10.31,10.31,0,0,1-3.32-1.34L11.07,24a13.78,13.78,0,0,1-3.84-.28,10.18,10.18,0,0,1-3.31-1.37C2.56,21.5,1.66,19.92.81,16.94a16.46,16.46,0,0,1-.75-6.22,13.9,13.9,0,0,1,.8-3.78A12,12,0,0,1,2.73,4,9.86,9.86,0,0,1,6.78,1.12,12.85,12.85,0,0,1,11.09.23l.11,0a9.44,9.44,0,0,1,6.31,1c.53.26,1,.52,1.49.79l.21.1a18.38,18.38,0,0,1,3.54,2.21,14.18,14.18,0,0,1,2.46,2.32A14,14,0,0,1,26.3,8.21,9.22,9.22,0,0,1,27.21,11a10.28,10.28,0,0,1,.19,2.39,9.53,9.53,0,0,1,.3,2.51,10.08,10.08,0,0,1-.78,3.55,9.82,9.82,0,0,1-3.12,3.78,10.58,10.58,0,0,1-5.11,2.28A16.3,16.3,0,0,1,16.39,25.68Z"/>
</svg>