<svg xmlns="http://www.w3.org/2000/svg" viewBox="0 0 26.4 23.11">
  <path d="M13.82,23.11c-.31,0-.61,0-.9,0a12.49,12.49,0,0,1-4.71-1.54,11.29,11.29,0,0,1-3.88-3.34,11.83,11.83,0,0,1-3.11-3.92A10.65,10.65,0,0,1,0,9.45,11.54,11.54,0,0,1,.5,6.06,7.82,7.82,0,0,1,2.92,2.6,9.92,9.92,0,0,1,6,.65,11.09,11.09,0,0,1,8.86,0a12.55,12.55,0,0,1,3.76.34A11.06,11.06,0,0,1,14.1.85l.18,0a11.56,11.56,0,0,1,2.88,0,8.88,8.88,0,0,1,2.55.59A10.24,10.24,0,0,1,22,2.81a9.68,9.68,0,0,1,2.74,3.93,11.89,11.89,0,0,1,1,3.46,7.69,7.69,0,0,1,.56,1.7,8.15,8.15,0,0,1,0,3,8.62,8.62,0,0,1-2.62,4.45,11.76,11.76,0,0,1-5.56,3.11A17.48,17.48,0,0,1,13.82,23.11Z"/>
</svg>