<svg xmlns="http://www.w3.org/2000/svg" viewBox="0 0 22.54 22.81">
  <path d="M9.74,22.81A12.29,12.29,0,0,1,8,22.69a10.19,10.19,0,0,1-4.35-1.56,8.43,8.43,0,0,1-2.49-2.5A8.28,8.28,0,0,1,.1,15.51a7.69,7.69,0,0,1,.19-3.35A11.7,11.7,0,0,1,.43,8.39a9.66,9.66,0,0,1,2-4.25,9.25,9.25,0,0,1,3-2.53,7.11,7.11,0,0,1,1-.42A8.56,8.56,0,0,1,9.93.06a10.88,10.88,0,0,1,2.93.07A9,9,0,0,1,16.44,2,11.32,11.32,0,0,1,18,3.31c.27.24.54.49.81.77a13.16,13.16,0,0,1,2.88,4.07A11.94,11.94,0,0,1,22.53,12a8.6,8.6,0,0,1-.85,4.22A8.73,8.73,0,0,1,19.47,19c-.3.29-.66.62-1.1,1a11.41,11.41,0,0,1-5,2.36A16,16,0,0,1,9.74,22.81Z"/>
</svg>