<svg xmlns="http://www.w3.org/2000/svg" viewBox="0 0 26.91 25.93">
  <path d="M10.44,25.93a9.32,9.32,0,0,1-1.76-.15,12.82,12.82,0,0,1-2.44-.68,8.94,8.94,0,0,1-3.15-2.62,11.62,11.62,0,0,1-2.52-5A16.21,16.21,0,0,1,0,13.56,18.7,18.7,0,0,1,.28,10.9,11.48,11.48,0,0,1,2.67,6.08a16.43,16.43,0,0,1,3.42-3.6A8.8,8.8,0,0,1,9.93.89a8.24,8.24,0,0,1,1-.09l.19-.09a10.39,10.39,0,0,1,3-.66,9.69,9.69,0,0,1,3.57.28A11.7,11.7,0,0,1,20.8,1.78a13.68,13.68,0,0,1,2.75,2.28,14.48,14.48,0,0,1,1.69,2.2,14.65,14.65,0,0,1,.9,1.87,12.3,12.3,0,0,1,.7,3.13,11.51,11.51,0,0,1-.45,4.62,11.61,11.61,0,0,1-3.22,4.92A19.74,19.74,0,0,1,18.77,24a16.74,16.74,0,0,1-5.33,1.65A19.71,19.71,0,0,1,10.44,25.93Z"/>
</svg>